<svg xmlns="http://www.w3.org/2000/svg" version="1.1" xmlns:xlink="http://www.w3.org/1999/xlink" xmlns:svgjs="http://svgjs.com/svgjs" width="512" height="512" x="0" y="0" viewBox="0 0 59 58" xml:space="preserve" class=""><g><g xmlns="http://www.w3.org/2000/svg" id="Page-1" fill="none" fill-rule="evenodd"><g id="019---Arrow-Target" fill-rule="nonzero"><path id="Shape" d="m18 19-7 2-7.62-2-2.27-4.55c-.15596924-.3095182-.14054526-.6777279.04076307-.9731178.18130834-.29539.50264372-.4758333.84923693-.4768822h12.38c.3801569-.0026457.7289345.2104962.9.55z" fill="#f3d55b" data-original="#f3d55b"></path><path id="Shape" d="m18 24-2.72 5.45c-.1710655.3395038-.5198431.5526457-.9.55h-12.38c-.34659321-.0010489-.66792859-.1814922-.84923693-.4768822-.18130833-.2953899-.19673231-.6635996-.04076307-.9731178l2.27-4.55 7.62-2z" fill="#f3d55b" data-original="#f3d55b"></path><path id="Shape" d="m37 41h7.7v14c0 1.6568542-1.3431458 3-3 3h-1.7c-1.6568542 0-3-1.3431458-3-3z" fill="#a56a43" data-original="#a56a43"></path><path id="Shape" d="m35 0h9c6.38 0 11.84 5.72 14 13.78 1.3332969 5.0603156 1.3332969 10.3796844 0 15.44-2.16 8.06-7.62 13.78-14 13.78h-9z" fill="#c03a2b" data-original="#c03a2b"></path><ellipse id="Oval" cx="35" cy="21.5" fill="#e64c3c" rx="15" ry="21.5" data-original="#e64c3c"></ellipse><ellipse id="Oval" cx="34.5" cy="21.5" fill="#ecf0f1" rx="9.5" ry="15.5" data-original="#ecf0f1"></ellipse><ellipse id="Oval" cx="34" cy="21.5" fill="#e64c3c" rx="4" ry="7.5" data-original="#e64c3c"></ellipse><path id="Shape" d="m33 21.5c.0021341.6636932-.2605727 1.3008186-.729877 1.770123-.4693044.4693043-1.1064298.7320111-1.770123.729877h-27.12c-1.38071187 0-2.5-1.1192881-2.5-2.5s1.11928813-2.5 2.5-2.5h27.12c1.3807119 0 2.5 1.1192881 2.5 2.5z" fill="#a56a43" data-original="#a56a43"></path></g></g></g></svg>
